<?xml version="1.0" encoding="utf-8"?>
<!-- Generator: Adobe Illustrator 16.0.0, SVG Export Plug-In . SVG Version: 6.00 Build 0)  -->
<!DOCTYPE svg PUBLIC "-//W3C//DTD SVG 1.1//EN" "http://www.w3.org/Graphics/SVG/1.1/DTD/svg11.dtd">
<svg version="1.1" id="Layer_1" xmlns="http://www.w3.org/2000/svg" xmlns:xlink="http://www.w3.org/1999/xlink" x="0px" y="0px"
	 width="506px" height="506px" viewBox="0 0 506 506" enable-background="new 0 0 506 506" xml:space="preserve">
<path fill="#03314C" stroke="#FFFFFF" stroke-width="3" stroke-miterlimit="10" d="M504.496,252.247
	c0,139.314-112.933,252.247-252.253,252.247C112.933,504.494,0,391.562,0,252.247C0,112.933,112.933,0,252.243,0
	C391.563,0,504.496,112.933,504.496,252.247z"/>
<path fill="#FFFFFF" d="M181.65,306.797l-66.225-45.881c0,0-7.896-21.5,17.009-24.556l66.229,45.889l3.611-5.218l-98.219-68.05
	c0,0-7.457-21.745,17.523-25.288l89.284,61.855l4.642-6.698l-107.888-74.748c-6.954-25.246,18.947-27.346,18.947-27.346
	l112.168,77.708l4.413-6.274l-90.011-62.108c-7.846-24.431,18.176-26.231,18.176-26.231l147.887,102.459l0.766-1.106
	c-6.35-22.423-41.204-62.932-19.621-85.758c9.713-10.266,15.866,0.445,19.887,8.91c10.706,22.514,23.974,42.513,37.232,63.501
	c10.794,17.088,18.141,37.719,21.496,57.63c1.709,10.137,1.413,21.396,5.862,30.872c3.821,8.145,13.354,13.441,12.249,23.466
	c-2.536,22.802-15.376,43.157-32.51,57.784c-8.769,7.488-20.701,15.575-32.302,11.821c-9.43-3.048-16.997-9.866-26.602-12.615
	c-10.008-2.868-20.519-3.617-30.518-6.623c-10.395-3.127-18.616-8.811-27.439-14.889"/>
<path fill="#02314B" d="M258.806,354.819c-5.856,2.437-11.323,4.71-17.732,5.255c-6.158,0.516-12.353-0.349-18.504,0.079
	c-5.896,0.416-11.124,3.431-16.972,4.041c-7.181,0.745-13.099-5.413-17.257-10.826c-8.141-10.59-13.072-23.961-11.729-37.482
	c0.59-5.95,6.771-7.842,9.977-12.095c3.742-4.943,4.968-11.509,7.199-17.172c4.399-11.13,11.205-22.173,19.556-30.751
	c10.266-10.536,20.409-20.493,29.391-32.218c3.368-4.411,8.253-9.866,12.622-2.715c9.695,15.882-15.49,35.071-21.929,47.274
	l0.318,0.748l98.3-41.187c0,0,14.864,4.249,7.313,17.438l-59.806,24.917l1.771,4.184l74.573-31.229c0,0,14.744,4.395,7.613,18.178
	l-71.726,30.031l1.871,4.453l59.348-24.859c14.041,5.131,7.052,16.827,7.052,16.827l-65.285,27.337l1.442,3.468l44.019-18.436
	c14.062,4.831,6.844,16.323,6.844,16.323l-44.022,18.436L258.806,354.819z"/>
</svg>
